{
  "accessors": [
    {
      "bufferView": 1,
      "componentType": 5126,
      "count": 52051,
      "max": [
        143.4580535888672,
        101.22900390625,
        439.7566833496094
      ],
      "min": [
        -1.702129602432251,
        -9.800982475280762,
        5.078536510467529
      ],
      "type": "VEC3"
    },
    {
      "bufferView": 1,
      "byteOffset": 624612,
      "componentType": 5126,
      "count": 52051,
      "max": [
        0.9999905824661255,
        0.9999734163284302,
        0.9999985694885254
      ],
      "min": [
        -0.9999983310699463,
        -0.9999955892562866,
        -1.0
      ],
      "type": "VEC3"
    },
    {
      "bufferView": 0,
      "componentType": 5125,
      "count": 300090,
      "type": "SCALAR"
    }
  ],
  "asset": {
    "extras": {
      "author": "Dan Perreault (https://sketchfab.com/neometrixtech)",
      "license": "CC-BY-4.0 (http://creativecommons.org/licenses/by/4.0/)",
      "source": "https://sketchfab.com/3d-models/neometrix-bodybuilder-scan-data-mm-decimated-e7ac26e82e3044eb9502a66fc3534a3b",
      "title": "NeoMetrix Bodybuilder Scan Data Mm Decimated"
    },
    "generator": "Sketchfab-12.68.0",
    "version": "2.0"
  },
  "bufferViews": [
    {
      "buffer": 0,
      "byteLength": 1200360,
      "name": "floatBufferViews",
      "target": 34963
    },
    {
      "buffer": 0,
      "byteLength": 1249224,
      "byteOffset": 1200360,
      "byteStride": 12,
      "name": "floatBufferViews",
      "target": 34962
    }
  ],
  "buffers": [
    {
      "byteLength": 2449584,
      "uri": "scene.bin"
    }
  ],
  "materials": [
    {
      "doubleSided": true,
      "name": "Scene_-_Root",
      "pbrMetallicRoughness": {
        "metallicFactor": 0.0,
        "roughnessFactor": 0.6
      }
    }
  ],
  "meshes": [
    {
      "name": "Object_0",
      "primitives": [
        {
          "attributes": {
            "NORMAL": 1,
            "POSITION": 0
          },
          "indices": 2,
          "material": 0,
          "mode": 4
        }
      ]
    }
  ],
  "nodes": [
    {
      "children": [
        1
      ],
      "matrix": [
        1.0,
        0.0,
        0.0,
        0.0,
        0.0,
        2.220446049250313e-16,
        -1.0,
        0.0,
        0.0,
        1.0,
        2.220446049250313e-16,
        0.0,
        0.0,
        0.0,
        0.0,
        1.0
      ],
      "name": "Sketchfab_model"
    },
    {
      "children": [
        2
      ],
      "name": "NeoMetrix Bodybuilder Scan Data mm decimated.stl.cleaner.materialmerger.gles"
    },
    {
      "mesh": 0,
      "name": "Object_2"
    }
  ],
  "scene": 0,
  "scenes": [
    {
      "name": "Sketchfab_Scene",
      "nodes": [
        0
      ]
    }
  ]
}
